<svg width="429" height="117.3" xmlns="http://www.w3.org/2000/svg">
 <defs>
  <linearGradient y2="0" x2="0.49971" y1="0.999421" x1="0.49971" id="SVGID_1_">
   <stop stop-color="#0882C8" offset="0"/>
   <stop stop-color="#26B6DB" offset="1"/>
  </linearGradient>
 </defs>
 <g>
  <title>background</title>
  <rect fill="none" id="canvas_background" height="402" width="582" y="-1" x="-1"/>
 </g>
 <g>
  <title>Layer 1</title>
  <g id="svg_1">
   <circle id="svg_2" r="58.7" cy="58.7" cx="58.7" fill="url(#SVGID_1_)"/>
   <g id="svg_3">
    <circle id="svg_4" r="43.7" cy="58.5" cx="58.7" stroke-miterlimit="10" stroke-width="6" stroke="#FFFFFF" fill="none"/>
    <g id="svg_5">
     <path id="svg_6" d="m94.699997,47.799999c4.700005,1.600002 9.800003,-0.899998 11.400002,-5.599998c1.599998,-4.700001 -0.900002,-9.799999 -5.599998,-11.400002c-4.699997,-1.599998 -9.800003,0.900002 -11.400002,5.600002c-1.599998,4.699997 0.900002,9.799999 5.599998,11.399998z" fill="#FFFFFF"/>
     <line id="svg_7" y2="64.4" x2="67.5" y1="39.4" x1="97.6" stroke-miterlimit="10" stroke-width="6" stroke="#FFFFFF" fill="none"/>
    </g>
    <g id="svg_8">
     <path id="svg_9" d="m77.599998,91c-0.400002,4.900002 3.200005,9.300003 8.200005,9.800003c5,0.399994 9.299995,-3.200005 9.799995,-8.200005c0.400002,-4.900002 -3.199997,-9.299995 -8.199997,-9.799995c-5,-0.400002 -9.400002,3.199997 -9.800003,8.199997z" fill="#FFFFFF"/>
     <line id="svg_10" y2="64.4" x2="67.5" y1="91.8" x1="86.5" stroke-miterlimit="10" stroke-width="6" stroke="#FFFFFF" fill="none"/>
    </g>
    <path id="svg_11" d="m60,69.300003c2.700001,4.199997 8.300003,5.399994 12.400002,2.699997c4.199997,-2.699997 5.400002,-8.299999 2.699997,-12.400002c-2.699997,-4.199997 -8.299995,-5.399998 -12.399998,-2.699997c-4.200001,2.599998 -5.400002,8.199997 -2.700001,12.400002z" fill="#FFFFFF"/>
    <g id="svg_12">
     <path id="svg_13" d="m21.200001,61.400002c-4.300001,-2.5 -9.800001,-1.100002 -12.300001,3.099998c-2.5,4.300003 -1.099999,9.800003 3.1,12.300003c4.299999,2.5 9.799999,1.099998 12.299999,-3.100006c2.5,-4.199997 1.1,-9.699997 -3.099998,-12.299995z" fill="#FFFFFF"/>
     <line id="svg_14" y2="64.4" x2="67.5" y1="69.1" x1="16.6" stroke-miterlimit="10" stroke-width="6" stroke="#FFFFFF" fill="none"/>
    </g>
   </g>
  </g>
  <text transform="matrix(0.938601, 0, 0, 1.47231, 7.73769, -30.8519)" font-weight="bold" xml:space="preserve" text-anchor="start" font-family="Arvo, sans-serif" font-size="50" id="svg_26" y="80.600006" x="127" stroke-width="0" fill="url(#SVGID_1_)">YemaanSync</text>
 </g>
</svg>